<svg id="Layer_1" data-name="Layer 1" xmlns="http://www.w3.org/2000/svg" viewBox="0 0 33.61 33.61"><defs><style>.cls-1{fill:#fff;}</style></defs><title>favicon</title><path class="cls-1" d="M354.41,293a20.26,20.26,0,0,0,9.83-10.14,11.34,11.34,0,0,0-4.72-2.86l-1-.32a1.23,1.23,0,0,0-.13.44,17,17,0,0,1-8.86,9.82,11.9,11.9,0,0,0-6.12,7l-.32.95a1.1,1.1,0,0,0,.44.13,20.18,20.18,0,0,1,3.57,1.72A16.33,16.33,0,0,1,354.41,293Z" transform="translate(-343.13 -279.69)"/><path class="cls-1" d="M372.91,293.27a23.56,23.56,0,0,1-9.63,8.35,13.32,13.32,0,0,0-6.89,7.85l-.32,1.08a11.84,11.84,0,0,0,4.28,2.42l.95.32a1.06,1.06,0,0,0,.13-.44,17,17,0,0,1,8.86-9.82,11.67,11.67,0,0,0,6.12-7l.32-1A14.9,14.9,0,0,1,372.91,293.27Z" transform="translate(-343.13 -279.69)"/><path class="cls-1" d="M353.52,307.23a16.82,16.82,0,0,1,8.29-8.73,20,20,0,0,0,8.29-7.34,16.16,16.16,0,0,1-3.57-4.91,23.7,23.7,0,0,1-10.58,10,12.73,12.73,0,0,0-6,5.86,16.7,16.7,0,0,1,3.44,4.85Z" transform="translate(-343.13 -279.69)"/></svg>